<?xml version="1.0" encoding="UTF-8" standalone="no"?><!DOCTYPE svg PUBLIC "-//W3C//DTD SVG 1.1//EN" "http://www.w3.org/Graphics/SVG/1.1/DTD/svg11.dtd"><svg width="100%" height="100%" viewBox="0 0 1671 1671" version="1.1" xmlns="http://www.w3.org/2000/svg" xmlns:xlink="http://www.w3.org/1999/xlink" xml:space="preserve" xmlns:serif="http://www.serif.com/" style="fill-rule:evenodd;clip-rule:evenodd;stroke-linejoin:round;stroke-miterlimit:2;"><rect id="Artboard1" x="0" y="0" width="1669.57" height="1669.57" style="fill:none;"/><g id="Layer-1" serif:id="Layer 1"><g id="g1"><path id="path3" d="M423.646,1540.43c-66.938,-19.295 -117.558,-70.641 -139.229,-141.008l-5.134,-16.667l-0.741,-280.275l-0.746,-281.25c-0.009,-3.595 -2.925,-6.504 -6.521,-6.504l-43.333,0c-44.846,0 -50.9,-0.862 -66.659,-16.621c-13.033,-13.033 -16.533,-23.104 -16.575,-45.508c-0.062,-33.262 4.771,-39.087 59.225,-89.162c25.621,-23.563 74.592,-69.188 108.817,-101.392c34.208,-32.183 96.271,-90.508 137.913,-129.613c102.299,-96.062 161.924,-152.462 220.254,-208.333c68.512,-65.629 82.058,-77.487 101.166,-86.942c43.429,-21.487 99.271,-18.258 138.696,8.088c9.588,6.404 56.221,48.887 108.596,98.804c83.883,79.946 111.454,106.15 121.562,114.679c6.834,5.767 9.084,5.592 10.63,5.592c2.133,-0 5.504,-0.854 7.17,-5.646c1.267,-3.637 2.096,-14.7 2.096,-34.571c0,-10.908 0.1,-18.887 0.625,-24.916c0.496,-5.68 1.213,-9.284 3.025,-11.938c1.784,-2.612 4.538,-4.175 8.392,-6.283c2.829,-1.55 6.033,-2.238 13.7,-2.738c9.129,-0.596 23.621,-0.716 48.442,-0.708c25.025,0.008 40.491,0.083 50.858,1.167c13.304,1.391 16.787,4.695 23.346,12.487l4.875,5.792l-0,216.529c-0,1.779 0.725,3.483 2.016,4.712l17.73,16.942c9.75,9.313 42.487,40.679 72.75,69.7c30.3,29.058 65.15,62.104 77.445,73.438c36.538,33.687 43.809,44.829 43.809,73.262c-0,19.158 -4.588,31.917 -16.504,45.488c-12.963,14.762 -20.48,16.466 -54.288,16.487c-18.183,0.013 -38.912,0.746 -46.067,1.604l-12.791,1.538c-3.271,0.391 -5.734,3.166 -5.742,6.458l-1.321,564.442l-5.421,16.112c-24.037,71.442 -74.837,120.034 -142.879,136.346c-19.825,4.754 -28.775,4.692 -412.566,4.538c-364.025,-0.146 -393.055,-0.221 -406.621,-4.13Z" style="fill:#fff;"/><path id="path31" serif:id="path3" d="M423.646,1540.43c-66.938,-19.295 -117.558,-70.641 -139.229,-141.008l-5.134,-16.667l-0.741,-280.275l-0.746,-281.25c-0.009,-3.595 -2.925,-6.504 -6.521,-6.504l-43.333,0c-44.846,0 -50.9,-0.862 -66.659,-16.621c-13.033,-13.033 -16.533,-23.104 -16.575,-45.508c-0.062,-33.262 4.771,-39.087 59.225,-89.162c25.621,-23.563 74.592,-69.188 108.817,-101.392c34.208,-32.183 96.271,-90.508 137.913,-129.613c102.299,-96.062 161.924,-152.462 220.254,-208.333c68.512,-65.629 82.058,-77.487 101.166,-86.942c43.429,-21.487 99.271,-18.258 138.696,8.088c9.588,6.404 56.221,48.887 108.596,98.804c83.883,79.946 111.454,106.15 121.562,114.679c6.834,5.767 9.084,5.592 10.63,5.592c2.133,-0 5.504,-0.854 7.17,-5.646c1.267,-3.637 2.096,-14.7 2.096,-34.571c0,-10.908 0.1,-18.887 0.625,-24.916c0.496,-5.68 1.213,-9.284 3.025,-11.938c1.784,-2.612 4.538,-4.175 8.392,-6.283c2.829,-1.55 6.033,-2.238 13.7,-2.738c9.129,-0.596 23.621,-0.716 48.442,-0.708c25.025,0.008 40.491,0.083 50.858,1.167c13.304,1.391 16.787,4.695 23.346,12.487l4.875,5.792l-0,216.529c-0,1.779 0.725,3.483 2.016,4.712l17.73,16.942c9.75,9.313 42.487,40.679 72.75,69.7c30.3,29.058 65.15,62.104 77.445,73.438c36.538,33.687 43.809,44.829 43.809,73.262c-0,19.158 -4.588,31.917 -16.504,45.488c-12.963,14.762 -20.48,16.466 -54.288,16.487c-18.183,0.013 -38.912,0.746 -46.067,1.604l-12.791,1.538c-3.271,0.391 -5.734,3.166 -5.742,6.458l-1.321,564.442l-5.421,16.112c-24.037,71.442 -74.837,120.034 -142.879,136.346c-19.825,4.754 -28.775,4.692 -412.566,4.538c-364.025,-0.146 -393.055,-0.221 -406.621,-4.13Zm661.958,-155.016c13.325,-6.563 25.25,-19.204 31.446,-33.338c4.037,-9.208 4.4,-25.825 5.15,-236.741l0.804,-226.834l-146.092,0l-18.987,-18.987l-0,-159.546l-166.383,-0c-181.513,-0 -218.417,-0.388 -233.48,14.042c-5.091,4.875 -6.725,8.762 -6.725,16.008c0,20.279 0.53,35.983 0.53,35.983l1.304,563.725l5.625,12.229c8.787,19.088 23.404,32.334 42.046,38.096c3.375,1.042 111.233,1.7 239.691,1.463l233.559,-0.429l11.512,-5.671Z" style="fill:#1e663c;"/><path id="path2" d="M345.858,1064.06c-0.254,-243.005 -1.875,-310.188 -1.875,-310.188l0.013,-27.454c0.008,-33.842 3.408,-34.1 38.817,-66.667c46.283,-42.571 99.329,-92.046 125.845,-117.383c14.125,-13.492 40.525,-38.254 58.667,-55.029c50.913,-47.067 175.638,-165.43 216.471,-205.425c20.175,-19.767 39.254,-36.746 42.4,-37.734c3.142,-0.987 9.637,-1.058 14.429,-0.158c8.892,1.667 15.321,7.188 75.258,64.633c13.463,12.905 33.275,31.667 44.021,41.696c10.75,10.034 31.65,29.871 46.446,44.088c14.796,14.216 38.979,36.825 53.746,50.241c14.762,13.417 30.721,28.246 35.462,32.955c4.742,4.704 13.021,12.3 18.4,16.87c5.38,4.571 22.855,20.53 38.83,35.463c15.975,14.933 31.933,29.767 35.462,32.967c3.529,3.2 19.688,18.604 35.904,34.237c16.221,15.633 37.684,35.746 47.692,44.696c10.008,8.946 26.454,23.929 36.542,33.292l18.341,17.025l0,33.166c0,29.625 -1.221,37.517 -1.221,37.517l0,299.712c0,188.088 -0.908,304.617 -2.433,312.884c-7.954,43.116 -48.912,89.921 -88.258,100.858c-19.496,5.417 -41.038,5.625 -435.125,4.154l-360.734,-1.35l-14.145,-6.625c-36.55,-17.129 -62.38,-47.971 -74.334,-88.754c-3.991,-13.629 -4.321,-36.412 -4.621,-319.687Zm743.809,379.879c-0.759,-1.229 21.337,-2.567 50.946,-3.079l52.283,-0.909l21.204,-10.75c24.629,-12.491 39.892,-27.954 48.479,-49.121l5.454,-13.454l1.292,-653.241l-15.317,-15.771c-8.429,-8.671 -21.925,-21.667 -29.995,-28.875c-8.071,-7.204 -24.58,-22.675 -36.684,-34.375c-12.108,-11.704 -39.071,-37.142 -59.921,-56.529c-20.85,-19.392 -38.475,-35.838 -39.166,-36.546c-2.692,-2.759 -46.979,-44.471 -81.867,-77.109c-20.133,-18.829 -46.567,-43.591 -58.742,-55.025c-12.175,-11.433 -28.741,-26.841 -36.816,-34.241c-8.071,-7.396 -28.092,-25.95 -44.492,-41.234l-29.817,-27.783l-37.362,34.946c-20.55,19.221 -49.342,46.579 -63.983,60.8c-14.646,14.221 -28.43,27.504 -30.638,29.521c-2.208,2.021 -22.146,20.741 -44.304,41.608c-22.154,20.871 -56.242,52.713 -75.746,70.763c-19.504,18.05 -44.875,41.7 -56.379,52.55c-11.504,10.85 -35.717,33.483 -53.804,50.3c-57.259,53.225 -61.059,56.97 -66.021,65c-4.796,7.758 -4.854,12.229 -4.204,332.775l0.658,324.912l5.354,13.025c12.592,30.612 38.65,51.087 71.929,56.517c8.604,1.404 37.209,2.837 63.563,3.191l47.921,0.638c-0,-0 496.916,2.692 496.175,1.496Z" style="fill:#2aa35c;"/><path id="path1" d="M421.838,1546.7c-69.034,-19.896 -121.305,-72.787 -143.655,-145.354l-5.42,-17.596l-0.742,-281.25l-0.746,-281.25l-43.333,0c-48.071,0 -54.379,-1.642 -71.267,-18.529c-14.375,-14.375 -18.442,-25.404 -18.492,-50.108c-0.062,-34.875 4.246,-41.48 61.334,-93.976c25.612,-23.554 74.554,-69.154 108.762,-101.341c34.213,-32.183 96.275,-90.513 137.921,-129.617c102.275,-96.042 161.892,-152.429 220.204,-208.287c69.525,-66.6 83.4,-78.488 102.784,-88.08c45.475,-22.495 103.937,-19.07 145.216,8.509c9.659,6.458 56.696,49.212 109.471,99.508c119.554,113.942 124.433,118.471 127.692,118.471c1.896,0 2.746,-10.412 2.746,-33.696c-0,-37.187 1.233,-41.096 15.433,-48.858c6.796,-3.717 15.196,-4.267 65.271,-4.25c63.4,0.021 66.25,0.6 79.191,15.979l6.409,7.613l-0,218.908l17.729,16.937c9.754,9.317 42.496,40.684 72.758,69.709c30.267,29.025 65.075,62.033 77.354,73.35c38.763,35.741 45.913,47.891 45.913,78.058c-0,20.979 -5.079,34.929 -18.129,49.792c-14.179,16.15 -22.196,18.683 -59.184,18.708c-17.875,0.008 -38.258,0.712 -45.291,1.554l-12.792,1.538l-0.663,282.75l-0.658,282.75l-5.762,17.12c-24.805,73.721 -77.321,123.771 -147.538,140.605c-19.9,4.771 -28.879,4.87 -414.092,4.72c-365.641,-0.149 -394.795,-0.462 -408.425,-4.387Zm812.98,-70.375c39.345,-10.937 80.304,-57.742 88.258,-100.858c1.525,-8.267 2.433,-124.796 2.433,-312.884l0,-299.712l5.317,-5.663c5.3,-5.641 5.542,-5.658 70.221,-5.658l64.904,0l-12.138,-12.462c-6.675,-6.85 -32.495,-31.28 -57.383,-54.284c-55.908,-51.687 -77.846,-72.233 -107.608,-100.796c-12.779,-12.262 -41.392,-39.254 -63.588,-59.979c-22.191,-20.725 -49.704,-46.575 -61.137,-57.446c-54.492,-51.804 -74.225,-70.254 -99.075,-92.65c-14.784,-13.32 -40.642,-37.533 -57.463,-53.804c-16.825,-16.271 -43.171,-41.141 -58.546,-55.266c-15.379,-14.121 -36.616,-33.667 -47.195,-43.434c-10.575,-9.766 -24.93,-20.641 -31.896,-24.171c-23.463,-11.891 -57.192,-9.808 -76.904,4.75c-8.35,6.167 -53.071,47.675 -102.1,94.767c-16.171,15.533 -42.063,40.25 -57.53,54.929c-15.47,14.679 -51.787,49.404 -80.708,77.167c-28.917,27.767 -70.25,66.879 -91.842,86.921c-35.525,32.966 -82.612,76.766 -177.104,164.733c-18.121,16.871 -42.333,39.733 -53.804,50.813l-20.862,20.141l65.12,0.034c55.517,0.029 65.584,0.591 68.238,3.787c2.479,2.992 3.179,65.758 3.433,308.762c0.3,283.275 0.629,306.059 4.621,319.688c11.954,40.783 37.783,71.625 74.333,88.754l14.146,6.625l360.734,1.35c394.087,1.471 415.629,1.263 435.125,-4.154Zm-264.821,-596.287c-3.571,-3.309 -7.584,-8.884 -8.917,-12.388c-1.412,-3.708 -2.421,-38.508 -2.421,-83.45l0,-77.083l10.396,8.121c5.717,4.466 32.404,29.662 59.304,55.991c26.904,26.325 59.646,58.154 72.759,70.721c23,22.046 23.845,23.233 23.845,33.483l0,10.625l-148.47,0l-6.496,-6.02Z" style="fill:#6100de;fill-rule:nonzero;"/><g><path d="M1009.25,995.042l0,46.891c0,12.942 -10.504,23.446 -23.446,23.446l-282.121,0c-12.937,0 -23.445,-10.504 -23.445,-23.446l-0,-46.891c-0,-12.938 10.508,-23.446 23.446,-23.446l282.12,-0c12.942,-0 23.446,10.508 23.446,23.446Z" style="fill:#0a2a42;"/><path d="M1009.25,1171.34l0,46.891c0,12.938 -10.504,23.446 -23.446,23.446l-282.121,0c-12.937,0 -23.445,-10.508 -23.445,-23.446l-0,-46.891c-0,-12.942 10.508,-23.446 23.446,-23.446l282.12,-0c12.942,-0 23.446,10.504 23.446,23.446Z" style="fill:#0a2a42;"/></g></g></g></svg>