<svg
		xmlns="http://www.w3.org/2000/svg"
		xml:space="preserve"
		style="fill-rule:evenodd;clip-rule:evenodd;stroke-linejoin:round;stroke-miterlimit:2"
		viewBox="0 0 512 512"
	>
		<path d="M0 0h512v512H0z" style="fill:none" />
		<path
			d="M43.448 255.916c-.396.048-.799.072-1.206.072-4.97.012-11.008.012-16.04.012a9.998 9.998 0 0 1-9.992-10.387c1.578-36.902 11.505-71.658 27.936-102.423a9.99 9.99 0 0 1 14.525-3.445c4.245 2.958 9.234 6.452 13.236 9.255a10 10 0 0 1 3.114 12.848 202.32 202.32 0 0 0-18.956 53.467 3.99 3.99 0 0 0 6.394 3.893C99.606 189.812 249.793 70.914 249.793 70.914a9.999 9.999 0 0 1 12.414 0L449.54 219.22a4 4 0 0 0 6.41-3.896C437.064 122.195 354.665 52 256 52c-59.426 0-112.951 25.465-150.25 66.068a9.982 9.982 0 0 1-13.123 1.472 4920.267 4920.267 0 0 1-13.246-9.255 10 10 0 0 1-1.74-14.835C121.6 46.685 185.245 16 256 16c128.98 0 234.332 101.964 239.779 229.614a9.99 9.99 0 0 1-9.982 10.375C462.227 256 406 256 406 256v180c0 33.115-26.885 60-60 60H166c-30.508 0-55.728-22.818-59.51-52.305-43.214-34.478-74.276-83.557-85.689-139.736a9.988 9.988 0 0 1 9.795-11.948c5.362-.01 11.557-.01 16.385-.01a10 10 0 0 1 9.779 7.908c6.192 28.216 18.235 54.25 34.791 76.767a7.988 7.988 0 0 0 14.437-4.714C106 332.882 106 256 106 256H44.743c-.438 0-.87-.028-1.295-.084ZM366 430v-41.586c0-5.522-4.477-10-10-10H156c-5.523 0-10 4.478-10 10V430c0 19.869 16.131 36 36 36h148c19.869 0 36-16.131 36-36Zm-10-84a9.999 9.999 0 0 0 10-10v-74c0-2.044-.17-4.049-.499-6h-21c-5.524 0-10-4.477-10-10v-10c0-5.523 4.476-10 10-10h13.707a10 10 0 0 0 6.372-17.708l-103.208-82.025c-3.698-3.057-7.046-3.057-10.744 0L147.42 208.292A10.002 10.002 0 0 0 153.792 226H167.5c5.523 0 10 4.477 10 10v10c0 5.523-4.477 10-10 10h-21.001a36.098 36.098 0 0 0-.499 6v74a10 10 0 0 0 10 10h200Z"
		/>
	</svg>
